<!DOCTYPE svg PUBLIC "-//W3C//DTD SVG 1.1//EN" "http://www.w3.org/Graphics/SVG/1.1/DTD/svg11.dtd">
<!-- Uploaded to: SVG Repo, www.svgrepo.com, Transformed by: SVG Repo Mixer Tools -->
<svg width="800px" height="800px" viewBox="0 0 64 64" fill="none" xmlns="http://www.w3.org/2000/svg">
<g id="SVGRepo_bgCarrier" stroke-width="0"/>
<g id="SVGRepo_tracerCarrier" stroke-linecap="round" stroke-linejoin="round"/>
<g id="SVGRepo_iconCarrier"> <path d="M31.667 37.8979V56.287" stroke="#ffffff" stroke-width="4" stroke-linecap="round" stroke-linejoin="round"/> <path d="M21.725 37.898H41.609C42.0027 37.8975 42.3875 37.7809 42.7151 37.5627C43.0428 37.3446 43.2988 37.0346 43.4511 36.6715C43.6033 36.3085 43.6451 35.9086 43.5711 35.522C43.497 35.1353 43.3106 34.7791 43.035 34.498L39.735 31.142C39.5138 30.9168 39.349 30.6426 39.2541 30.3415C39.1592 30.0405 39.1369 29.7213 39.189 29.41L42.308 10.81C42.356 10.5234 42.3409 10.2297 42.2638 9.94954C42.1867 9.66934 42.0495 9.40931 41.8617 9.18754C41.6739 8.96576 41.4401 8.78758 41.1764 8.66539C40.9127 8.54319 40.6256 8.47992 40.335 8.47998H22.994C22.7035 8.48007 22.4165 8.54344 22.1529 8.6657C21.8894 8.78796 21.6557 8.96616 21.468 9.18792C21.2803 9.40968 21.1432 9.66966 21.0662 9.94978C20.9891 10.2299 20.9741 10.5234 21.022 10.81L24.14 29.41C24.1921 29.7213 24.1698 30.0405 24.0749 30.3415C23.98 30.6426 23.8152 30.9168 23.594 31.142L20.294 34.498C20.0181 34.7794 19.8316 35.1361 19.7577 35.5232C19.6839 35.9103 19.726 36.3106 19.8789 36.6738C20.0318 37.0371 20.2886 37.347 20.617 37.5648C20.9455 37.7826 21.3309 37.8985 21.725 37.898V37.898Z" stroke="#ffffff" stroke-width="4" stroke-linecap="round" stroke-linejoin="round"/> </g>
</svg>